<svg width="95" height="28" viewBox="0 0 95 28" fill="none" xmlns="http://www.w3.org/2000/svg">
<path d="M28.4907 11.7711C27.9906 11.3176 27.9192 11.2421 27.9192 11.0909C27.9192 11.0153 28.1335 8.82354 27.9906 6.78292C27.6334 2.02148 25.5617 0.963379 24.8473 0.963379C24.7759 0.963379 24.7759 0.963379 24.7044 1.03896C24.4901 1.34127 24.4901 2.24821 24.7759 3.91094C24.9187 4.59115 25.2759 5.8004 25.6331 7.08524C26.0618 8.52123 26.4904 9.95722 26.6333 10.7886L26.7047 10.9397L25.6331 11.3176L25.5617 11.1665C25.3474 10.5618 24.9902 9.6549 24.7044 8.52123C24.1329 6.70734 23.4185 4.43999 22.847 3.53305C22.4184 2.77726 21.4897 1.79474 21.061 1.79474H20.9896C20.7753 1.87032 20.561 2.09706 20.4895 2.55053C20.2038 3.75978 20.561 6.02714 22.0612 8.29449C23.5614 10.4107 24.2758 11.6199 24.3472 11.9978L24.4187 12.149L24.3472 12.2246C24.3472 12.2246 24.0615 12.6025 23.6328 12.6025C23.4185 12.6025 23.2042 12.5269 23.0613 12.3001C19.7037 8.82354 16.2746 7.08524 12.9885 7.08524C10.9882 7.08524 9.48797 7.68986 8.77358 8.06775C8.48783 8.21891 8.27351 8.29449 8.13063 8.29449C7.98775 8.29449 7.98776 8.21891 7.91632 8.21891C7.84488 8.14333 7.84488 8.14333 7.84488 7.99218C7.84488 7.00966 7.77344 5.87598 7.55912 5.57367C7.48768 5.49809 7.41625 5.49809 7.34481 5.49809C6.05891 5.42251 4.2015 6.40503 3.55855 7.84102C3.12992 8.67238 3.2728 9.50375 3.77287 10.3351C4.27294 11.0909 5.05877 11.0909 5.55884 11.1665C5.84459 11.1665 6.05891 11.2421 6.13035 11.3932C6.20179 11.6199 5.98747 11.6955 5.84459 11.9223C0.915322 16.0035 -0.299136 19.4801 0.0580578 20.6894C0.129496 20.8405 0.200935 20.9917 0.343813 20.9917C0.48669 20.9917 0.558129 20.9161 0.701006 20.8405C4.5587 17.3639 8.48783 15.55 12.4884 15.55C19.7751 15.55 24.9187 21.294 26.3475 23.1079C26.6333 23.4858 26.9905 23.9392 27.2762 24.3927C28.062 25.4508 28.8479 26.5089 29.5622 27.038C30.1338 27.4158 30.7767 27.4914 31.0625 27.1135C31.2768 26.8868 31.3482 26.3577 31.2053 25.6775C30.9196 24.0904 29.5622 22.3521 28.6335 21.3696C27.8477 20.4626 27.562 20.0847 27.6334 19.7824C27.7048 19.7068 27.7048 19.5557 27.9192 19.5557C30.2052 19.0266 31.5625 18.1953 31.7768 16.986C32.134 15.021 29.5622 12.7536 28.4907 11.7711ZM51.3511 9.95722C48.9221 9.95722 46.9219 11.9223 46.9219 14.2652C46.9219 14.7942 47.0647 15.3233 47.2076 15.8523L47.279 15.9279L47.2076 16.0035C46.7075 16.6081 46.2789 16.986 45.8503 16.986C44.993 16.986 44.993 15.7012 44.993 14.114C44.9216 12.149 44.9216 9.95722 43.2785 9.95722C41.3496 9.95722 39.8494 12.6025 38.9207 14.8698L38.5635 15.6256L38.7064 13.0559C38.8493 10.4107 38.9207 7.9166 38.9207 5.42251C38.9207 3.15515 38.8493 1.87032 38.7778 1.56801C38.7064 1.41685 38.2778 1.11454 37.9206 1.11454C37.7063 1.11454 36.9204 1.49243 36.7776 1.64359C36.6347 1.9459 36.4918 5.04462 36.4918 7.99218C36.4918 14.9454 36.9204 17.893 36.9919 18.2708V18.3464C37.0633 18.4976 37.4205 18.5732 37.7063 18.5732C37.992 18.5732 38.4206 18.4976 38.4921 18.3464L38.5635 18.1953C39.3493 16.0035 40.8496 12.3001 42.1355 12.3001C42.8498 12.3001 42.8498 13.2827 42.9213 14.4163C42.9927 16.2302 43.0642 18.4976 45.4216 18.4976C46.2789 18.4976 47.1362 17.9685 47.922 16.986L48.0649 16.8349L48.2077 16.986C49.065 17.893 50.2795 18.4976 51.5654 18.4976C54.0657 18.4976 56.066 16.5325 56.066 14.1896C55.7803 11.9223 53.78 9.95722 51.3511 9.95722ZM51.3511 16.9104C50.208 16.9104 49.3508 15.7012 49.3508 14.2652C49.3508 12.8292 50.2795 11.6199 51.3511 11.6199C52.4941 11.6199 53.4228 12.8292 53.4228 14.2652C53.4228 15.7012 52.4941 16.9104 51.3511 16.9104ZM61.1382 9.95722C60.2809 9.95722 59.3522 10.2595 58.6378 10.7886L58.4235 10.9397L58.352 10.713C58.2806 10.4107 58.2806 10.184 58.2806 10.184C58.2092 10.0328 57.7805 9.95722 57.4948 9.95722C57.2805 9.95722 56.8518 10.0328 56.7804 10.184C56.709 10.4863 56.3518 13.8873 56.3518 20.0092V20.0847C56.4232 20.1603 56.4232 20.2359 56.4232 20.5382C56.4946 23.5613 56.709 26.5089 56.8518 26.8868C56.9947 27.038 57.7805 27.4158 57.9949 27.4158H58.0663C58.4949 27.4158 58.8521 27.1135 58.8521 26.9624C58.8521 26.8868 58.9236 26.5845 58.9236 24.6194V23.1079C58.9236 22.0498 58.8521 21.3696 58.8521 20.4626C58.7807 19.858 58.7807 19.1778 58.7092 18.1197V17.893L58.9236 18.0441C59.6379 18.422 60.3523 18.6487 61.0667 18.6487C63.5671 18.6487 65.5674 16.6837 65.5674 14.3408C65.6388 11.9223 63.6385 9.95722 61.1382 9.95722ZM61.1382 16.9104C59.2808 16.9104 58.6378 15.55 58.6378 14.2652C58.6378 12.678 59.5665 11.6199 61.1382 11.6199C62.2812 11.6199 63.2099 12.8292 63.2099 14.2652C63.2099 15.7012 62.2812 16.9104 61.1382 16.9104ZM70.9967 9.95722C70.1394 9.95722 69.2107 10.2595 68.4963 10.7886L68.282 10.9397L68.2106 10.713C68.1392 10.4107 68.1392 10.184 68.1392 10.184C68.0677 10.0328 67.6391 9.95722 67.3533 9.95722C67.139 9.95722 66.7104 10.0328 66.6389 10.184C66.5675 10.4863 66.2103 13.8873 66.2103 20.0092V20.0847C66.2817 20.1603 66.2817 20.2359 66.2817 20.5382C66.3532 23.5613 66.5675 26.5089 66.7104 26.8868C66.8533 27.038 67.6391 27.4158 67.8534 27.4158H67.9248C68.3535 27.4158 68.7107 27.1135 68.7107 26.9624C68.7107 26.8868 68.7821 26.5845 68.7821 24.6194V23.1079C68.7821 22.0498 68.7107 21.3696 68.7107 20.4626C68.6392 19.858 68.6392 19.1778 68.5678 18.1953V17.9685L68.7821 18.1197C69.4965 18.4976 70.2109 18.7243 70.9253 18.7243C73.4256 18.7243 75.4259 16.7593 75.4259 14.4163C75.4973 11.9223 73.4971 9.95722 70.9967 9.95722ZM70.9967 16.9104C69.1393 16.9104 68.4963 15.55 68.4963 14.2652C68.4963 12.678 69.425 11.6199 70.9967 11.6199C72.1397 11.6199 73.0684 12.8292 73.0684 14.2652C73.0684 15.7012 72.1397 16.9104 70.9967 16.9104ZM94.0714 13.2071C94.0714 13.2071 94 13.2827 94 13.3582C93.357 14.7187 91.9997 16.986 90.9995 16.986C90.7138 16.986 90.5709 16.7593 90.5709 16.457C90.5709 16.0791 90.8567 15.3233 91.2139 14.4919C91.4996 13.6606 91.9282 12.7536 91.9282 12.2246C91.9282 11.3176 91.3567 10.8642 90.3566 10.8642C90.2851 10.8642 88.142 10.8642 87.499 10.4107L87.4276 10.3351V10.2595C87.4276 9.73048 87.2847 8.37007 86.2131 8.37007C85.6416 8.37007 85.2844 9.27701 85.2844 9.73048C85.2844 10.9397 85.8559 11.4688 86.1417 11.6199C86.2131 11.6955 86.2131 11.6955 86.2131 11.6955L86.2846 11.7711L86.2131 11.8467C85.9274 12.9804 85.2844 13.9629 84.9987 14.5675C83.9985 16.0791 82.7841 16.7593 81.141 16.7593C79.9265 16.7593 78.9978 16.0791 78.7121 14.9454L78.6406 14.6431L78.855 14.7187C79.4979 14.9454 80.0694 15.021 80.6409 15.021C82.2126 15.021 83.8557 14.1896 83.8557 12.3757C83.8557 10.8642 82.4983 9.73048 80.6409 9.73048C78.212 9.73048 76.2117 11.6955 76.2117 14.0385C76.2117 15.7768 77.4976 18.3464 81.0696 18.3464C83.9271 18.3464 85.3559 15.6256 85.7845 14.7942L85.8559 14.7187C86.356 13.8117 86.7847 12.678 86.9275 12.2246L86.999 12.0734L87.1418 12.149C87.3562 12.2246 88.3563 12.4513 88.9993 12.4513C89.285 12.4513 89.4993 12.6025 89.4993 12.9048C89.4993 12.9804 89.4279 13.0559 89.4279 13.1315L89.3564 13.2071L89.2136 13.4338C88.8564 14.2652 88.3563 15.4744 88.3563 16.3058C88.3563 17.3639 88.9993 18.422 90.428 18.422C92.4283 18.422 93.6428 15.7768 94.0714 14.9454L94.1428 14.8698C94.2143 14.6431 94.2857 14.3408 94.2857 13.9629C94.2143 13.6606 94.1428 13.2071 94.0714 13.2071ZM78.6406 13.9629C78.7835 12.678 79.7122 11.6199 80.6409 11.6199C81.4982 11.6199 82.0697 12.0734 82.0697 12.9048C82.0697 13.8873 80.7838 14.2652 79.7122 14.2652C79.2836 14.2652 78.9264 14.1896 78.7121 14.114L78.5692 14.0385L78.6406 13.9629Z" fill="#F6F6F6"/>
</svg>
