<svg width="32" height="32" viewBox="0 0 32 32" fill="none" xmlns="http://www.w3.org/2000/svg">
<path fill-rule="evenodd" clip-rule="evenodd" d="M16 31C24.2843 31 31 24.2843 31 16C31 7.71573 24.2843 1 16 1C7.71573 1 1 7.71573 1 16C1 24.2843 7.71573 31 16 31Z" stroke="#878787" stroke-width="0.885078"/>
<rect x="8.9165" y="8.91675" width="14.1667" height="14.1667" rx="4.02711" stroke="#505050" stroke-width="1.54889"/>
<path fill-rule="evenodd" clip-rule="evenodd" d="M16.0206 19.4691C17.891 19.4691 19.4074 17.9438 19.4074 16.0624C19.4074 14.181 17.891 12.6558 16.0206 12.6558C14.1501 12.6558 12.6338 14.181 12.6338 16.0624C12.6338 17.9438 14.1501 19.4691 16.0206 19.4691Z" stroke="#505050" stroke-width="1.54889"/>
<path fill-rule="evenodd" clip-rule="evenodd" d="M20.1714 12.822C20.7189 12.822 21.1627 12.3756 21.1627 11.8249C21.1627 11.2743 20.7189 10.8279 20.1714 10.8279C19.624 10.8279 19.1802 11.2743 19.1802 11.8249C19.1802 12.3756 19.624 12.822 20.1714 12.822Z" fill="#505050"/>
</svg>
