<svg width="32" height="32" viewBox="0 0 32 32" fill="none" xmlns="http://www.w3.org/2000/svg">
<path fill-rule="evenodd" clip-rule="evenodd" d="M16 31C24.2843 31 31 24.2843 31 16C31 7.71573 24.2843 1 16 1C7.71573 1 1 7.71573 1 16C1 24.2843 7.71573 31 16 31Z" stroke="#878787" stroke-width="0.885078"/>
<path fill-rule="evenodd" clip-rule="evenodd" d="M12.2627 22.4582H9.53809V13.6985H12.2627V22.4582ZM10.915 12.4973C10.4853 12.4973 10.1143 12.3411 9.80176 12.0286C9.48926 11.7161 9.33301 11.345 9.33301 10.9153C9.33301 10.4856 9.48926 10.1145 9.80176 9.802C10.1143 9.4895 10.4853 9.33325 10.915 9.33325C11.3447 9.33325 11.7158 9.4895 12.0283 9.802C12.3408 10.1145 12.4971 10.4856 12.4971 10.9153C12.4971 11.345 12.3408 11.7161 12.0283 12.0286C11.7158 12.3411 11.3447 12.4973 10.915 12.4973ZM22.458 22.4582H19.7334V18.1809C19.7334 17.4778 19.6748 16.97 19.5576 16.6575C19.3428 16.1301 18.9228 15.8664 18.2978 15.8664C17.6728 15.8664 17.2334 16.1008 16.9795 16.5696C16.7842 16.9211 16.6865 17.4387 16.6865 18.1223V22.4582H13.9912V13.6985H16.5986V14.8997H16.6279C16.8232 14.509 17.1357 14.1868 17.5654 13.9329C18.0342 13.6204 18.581 13.4641 19.206 13.4641C20.4756 13.4641 21.3642 13.8645 21.8721 14.6653C22.2627 15.3098 22.458 16.3059 22.458 17.6536V22.4582Z" fill="#505050"/>
</svg>
