<svg width="14" height="14" viewBox="0 0 14 14" fill="none" xmlns="http://www.w3.org/2000/svg">
<path fill-rule="evenodd" clip-rule="evenodd" d="M3.59618 13.5416H0.871582V4.78186H3.59618V13.5416ZM2.24853 3.58068C1.81884 3.58068 1.44775 3.42443 1.13525 3.11193C0.822753 2.79943 0.666504 2.42834 0.666504 1.99865C0.666504 1.56897 0.822753 1.19787 1.13525 0.885375C1.44775 0.572875 1.81884 0.416626 2.24853 0.416626C2.67822 0.416626 3.04931 0.572875 3.36181 0.885375C3.67431 1.19787 3.83056 1.56897 3.83056 1.99865C3.83056 2.42834 3.67431 2.79943 3.36181 3.11193C3.04931 3.42443 2.67822 3.58068 2.24853 3.58068ZM13.7915 13.5416H11.0669V9.26424C11.0669 8.56112 11.0083 8.05331 10.8911 7.74081C10.6763 7.21346 10.2563 6.94979 9.63134 6.94979C9.00634 6.94979 8.56689 7.18417 8.31298 7.65292C8.11767 8.00448 8.02001 8.52205 8.02001 9.20565V13.5416H5.32471V4.78183H7.93212V5.983H7.96142C8.15673 5.59237 8.46923 5.27011 8.89892 5.0162C9.36767 4.7037 9.91454 4.54745 10.5395 4.54745C11.8091 4.54745 12.6977 4.94784 13.2055 5.74862C13.5962 6.39315 13.7915 7.38925 13.7915 8.7369V13.5416Z" fill="#505050"/>
</svg>
