<svg width="41" height="35" viewBox="0 0 41 35" fill="none" xmlns="http://www.w3.org/2000/svg">
<g opacity="0.25">
<path d="M35.2586 14.2822C34.6573 13.7668 34.5714 13.6809 34.5714 13.5092C34.5714 13.4233 34.8291 10.9325 34.6573 8.61347C34.2277 3.20245 31.7366 2 30.8776 2C30.7917 2 30.7917 2 30.7058 2.08589C30.4481 2.42945 30.4481 3.46012 30.7917 5.34968C30.9635 6.12268 31.393 7.49691 31.8225 8.95702C32.3379 10.5889 32.8533 12.2208 33.0251 13.1656L33.111 13.3374L31.8225 13.7668L31.7366 13.595C31.4789 12.9079 31.0494 11.8773 30.7058 10.5889C30.0186 8.52758 29.1596 5.9509 28.4724 4.92023C27.9569 4.06134 26.8402 2.94478 26.3248 2.94478H26.2389C25.9812 3.03067 25.7235 3.28834 25.6376 3.80367C25.294 5.1779 25.7235 7.75458 27.5274 10.3313C29.3314 12.7361 30.1904 14.1104 30.2763 14.5398L30.3622 14.7116L30.2763 14.7975C30.2763 14.7975 29.9327 15.2269 29.4173 15.2269C29.1596 15.2269 28.9019 15.141 28.7301 14.8834C24.6927 10.9325 20.5694 8.95702 16.618 8.95702C14.2127 8.95702 12.4088 9.64414 11.5498 10.0736C11.2062 10.2454 10.9485 10.3313 10.7767 10.3313C10.6049 10.3313 10.6049 10.2454 10.519 10.2454C10.4331 10.1595 10.4331 10.1595 10.4331 9.98769C10.4331 8.87114 10.3472 7.5828 10.0895 7.23924C10.0036 7.15335 9.91765 7.15335 9.83175 7.15335C8.28553 7.06746 6.05209 8.18402 5.27898 9.81592C4.76357 10.7607 4.93537 11.7055 5.53668 12.6503C6.13799 13.5092 7.08291 13.5092 7.68422 13.595C8.02782 13.595 8.28553 13.6809 8.37143 13.8527C8.45733 14.1104 8.19963 14.1963 8.02782 14.4539C2.10063 19.0919 0.640305 23.0429 1.06981 24.4171C1.15571 24.5889 1.24161 24.7606 1.41342 24.7606C1.58522 24.7606 1.67112 24.6747 1.84292 24.5889C6.4816 20.638 11.2062 18.5766 16.0167 18.5766C24.7786 18.5766 30.9635 25.1042 32.6815 27.1655C33.0251 27.595 33.4546 28.1103 33.7982 28.6256C34.7432 29.8281 35.6881 31.0305 36.5471 31.6318C37.2343 32.0612 38.0074 32.1471 38.351 31.7177C38.6087 31.46 38.6946 30.8588 38.5228 30.0858C38.1792 28.2821 36.5471 26.3066 35.4304 25.1901C34.4855 24.1594 34.1418 23.73 34.2277 23.3864C34.3136 23.3005 34.3136 23.1287 34.5714 23.1287C37.3202 22.5275 38.9523 21.5827 39.21 20.2085C39.6395 17.9754 36.5471 15.3987 35.2586 14.2822Z" fill="#505050"/>
</g>
</svg>
