<svg width="13" height="11" viewBox="0 0 13 11" fill="none" xmlns="http://www.w3.org/2000/svg">
<path fill-rule="evenodd" clip-rule="evenodd" d="M1.59367 2.11462C1.59367 1.95837 1.5329 1.81948 1.41137 1.69795L0.239502 0.291707V0.083374H3.91137L6.72386 6.28128L9.19781 0.083374H12.6874V0.291707L11.6718 1.25525C11.585 1.32469 11.5502 1.42018 11.5676 1.5417V8.62502C11.5502 8.74655 11.585 8.84203 11.6718 8.91148L12.6613 9.87502V10.0834H7.71344V9.87502L8.72907 8.88544C8.78115 8.83335 8.81153 8.79429 8.82021 8.76825C8.82889 8.74221 8.83323 8.68578 8.83323 8.59898V2.86983L6.02074 10.0573H5.63011L2.32283 2.86983V7.68752C2.30547 7.89585 2.36623 8.07815 2.50512 8.2344L3.83324 9.84898V10.0573H0.083252V9.84898L1.41137 8.2344C1.56762 8.07815 1.62839 7.89585 1.59367 7.68752V2.11462Z" fill="#505050"/>
</svg>
