<svg width="32" height="32" viewBox="0 0 32 32" fill="none" xmlns="http://www.w3.org/2000/svg">
<path fill-rule="evenodd" clip-rule="evenodd" d="M16 31C24.2843 31 31 24.2843 31 16C31 7.71573 24.2843 1 16 1C7.71573 1 1 7.71573 1 16C1 24.2843 7.71573 31 16 31Z" stroke="#878787" stroke-width="0.885078"/>
<path fill-rule="evenodd" clip-rule="evenodd" d="M11.2604 13.0312C11.2604 12.875 11.1996 12.7361 11.0781 12.6146L9.90625 11.2083V11H13.5781L16.3906 17.1979L18.8646 11H22.3541V11.2083L21.3385 12.1719C21.2517 12.2413 21.217 12.3368 21.2343 12.4583V19.5416C21.217 19.6632 21.2517 19.7587 21.3385 19.8281L22.3281 20.7916V21H17.3802V20.7916L18.3958 19.8021C18.4479 19.75 18.4783 19.7109 18.487 19.6849C18.4956 19.6588 18.5 19.6024 18.5 19.5156V13.7865L15.6875 20.9739H15.2969L11.9896 13.7865V18.6041C11.9722 18.8125 12.033 18.9948 12.1719 19.151L13.5 20.7656V20.9739H9.75V20.7656L11.0781 19.151C11.2344 18.9948 11.2951 18.8125 11.2604 18.6041V13.0312Z" fill="#505050"/>
</svg>
