<svg width="32" height="32" viewBox="0 0 32 32" fill="none" xmlns="http://www.w3.org/2000/svg">
<path fill-rule="evenodd" clip-rule="evenodd" d="M16 31C24.2843 31 31 24.2843 31 16C31 7.71573 24.2843 1 16 1C7.71573 1 1 7.71573 1 16C1 24.2843 7.71573 31 16 31Z" stroke="#878787" stroke-width="0.885078"/>
<path fill-rule="evenodd" clip-rule="evenodd" d="M21.7325 11.6776C22.3679 11.2967 22.8558 10.6937 23.0856 9.97506C22.491 10.3277 21.8324 10.5838 21.1314 10.7219C20.57 10.1238 19.7702 9.75 18.8851 9.75C17.1855 9.75 15.8076 11.1279 15.8076 12.8274C15.8076 13.0686 15.8349 13.3034 15.8873 13.5287C13.3296 13.4003 11.0621 12.1752 9.54422 10.3133C9.27933 10.7678 9.12757 11.2965 9.12757 11.8604C9.12757 12.9281 9.67091 13.87 10.4967 14.4219C9.99215 14.4059 9.51767 14.2675 9.10271 14.037C9.10249 14.0498 9.10249 14.0627 9.10249 14.0757C9.10249 15.5667 10.1633 16.8106 11.5711 17.0932C11.3128 17.1636 11.041 17.2012 10.7603 17.2012C10.562 17.2012 10.3692 17.1819 10.1813 17.146C10.5729 18.3686 11.7094 19.2583 13.0561 19.2832C12.0029 20.1086 10.6759 20.6005 9.23412 20.6005C8.98573 20.6005 8.74075 20.586 8.5 20.5576C9.8619 21.4307 11.4795 21.9402 13.2174 21.9402C18.8779 21.9402 21.9733 17.2509 21.9733 13.1842C21.9733 13.0508 21.9703 12.9181 21.9644 12.7861C22.5656 12.3522 23.0874 11.8102 23.5 11.193C22.9481 11.4378 22.355 11.6032 21.7325 11.6776Z" fill="#505050"/>
</svg>
