<svg width="16" height="14" viewBox="0 0 16 14" fill="none" xmlns="http://www.w3.org/2000/svg">
<path fill-rule="evenodd" clip-rule="evenodd" d="M14.066 2.761C14.7014 2.38012 15.1893 1.77703 15.4191 1.05844C14.8245 1.41107 14.1659 1.66718 13.4649 1.80523C12.9035 1.20713 12.1037 0.833374 11.2186 0.833374C9.519 0.833374 8.14108 2.21124 8.14108 3.91074C8.14108 4.15193 8.16835 4.38681 8.2208 4.61204C5.66313 4.48371 3.39555 3.25854 1.87772 1.39669C1.61282 1.85121 1.46106 2.37985 1.46106 2.94382C1.46106 4.01147 2.00441 4.95342 2.83015 5.50527C2.32565 5.48931 1.85116 5.35088 1.43621 5.12038C1.43599 5.13322 1.43599 5.14611 1.43599 5.15906C1.43599 6.65012 2.49678 7.89395 3.9046 8.17662C3.64635 8.24696 3.37448 8.28454 3.09378 8.28454C2.8955 8.28454 2.70269 8.26528 2.51483 8.22935C2.90641 9.45199 4.04292 10.3417 5.38957 10.3666C4.33635 11.1919 3.0094 11.6839 1.56761 11.6839C1.31923 11.6839 1.07425 11.6694 0.833496 11.641C2.1954 12.5141 3.81303 13.0235 5.55093 13.0235C11.2114 13.0235 14.3068 8.33425 14.3068 4.26759C14.3068 4.13415 14.3038 4.00143 14.2979 3.86948C14.8991 3.43559 15.4209 2.89356 15.8335 2.27642C15.2816 2.52118 14.6885 2.68661 14.066 2.761Z" fill="#505050"/>
</svg>
