<svg width="95" height="25" viewBox="0 0 95 25" fill="none" xmlns="http://www.w3.org/2000/svg">
<path d="M28.4907 10.2143C27.9906 9.78572 27.9192 9.71429 27.9192 9.57143C27.9192 9.5 28.1335 7.42857 27.9906 5.5C27.6334 1 25.5617 0 24.8473 0C24.7759 0 24.7759 0 24.7044 0.0714286C24.4901 0.357143 24.4901 1.21429 24.7759 2.78571C24.9187 3.42857 25.2759 4.57143 25.6331 5.78571C26.0618 7.14286 26.4904 8.5 26.6333 9.28571L26.7047 9.42857L25.6331 9.78571L25.5617 9.64286C25.3474 9.07143 24.9902 8.21429 24.7044 7.14286C24.1329 5.42857 23.4185 3.28571 22.847 2.42857C22.4184 1.71429 21.4897 0.785714 21.061 0.785714H20.9896C20.7753 0.857143 20.561 1.07143 20.4895 1.5C20.2038 2.64286 20.561 4.78571 22.0612 6.92857C23.5614 8.92857 24.2758 10.0714 24.3472 10.4286L24.4187 10.5714L24.3472 10.6429C24.3472 10.6429 24.0615 11 23.6328 11C23.4185 11 23.2042 10.9286 23.0613 10.7143C19.7037 7.42857 16.2746 5.78571 12.9885 5.78571C10.9882 5.78571 9.48797 6.35714 8.77358 6.71429C8.48783 6.85714 8.27351 6.92857 8.13063 6.92857C7.98775 6.92857 7.98776 6.85714 7.91632 6.85714C7.84488 6.78571 7.84488 6.78571 7.84488 6.64286C7.84488 5.71429 7.77344 4.64286 7.55912 4.35714C7.48768 4.28571 7.41625 4.28571 7.34481 4.28571C6.05891 4.21429 4.2015 5.14286 3.55855 6.5C3.12992 7.28571 3.2728 8.07143 3.77287 8.85714C4.27294 9.57143 5.05877 9.57143 5.55884 9.64286C5.84459 9.64286 6.05891 9.71429 6.13035 9.85714C6.20179 10.0714 5.98747 10.1429 5.84459 10.3571C0.915322 14.2143 -0.299136 17.5 0.0580578 18.6429C0.129496 18.7857 0.200935 18.9286 0.343813 18.9286C0.48669 18.9286 0.558129 18.8571 0.701006 18.7857C4.5587 15.5 8.48783 13.7857 12.4884 13.7857C19.7751 13.7857 24.9187 19.2143 26.3475 20.9286C26.6333 21.2857 26.9905 21.7143 27.2762 22.1429C28.062 23.1429 28.8479 24.1429 29.5622 24.6429C30.1338 25 30.7767 25.0714 31.0625 24.7143C31.2768 24.5 31.3482 24 31.2053 23.3571C30.9196 21.8571 29.5622 20.2143 28.6335 19.2857C27.8477 18.4286 27.562 18.0714 27.6334 17.7857C27.7048 17.7143 27.7048 17.5714 27.9192 17.5714C30.2052 17.0714 31.5625 16.2857 31.7768 15.1429C32.134 13.2857 29.5622 11.1429 28.4907 10.2143ZM51.3511 8.5C48.9221 8.5 46.9219 10.3571 46.9219 12.5714C46.9219 13.0714 47.0647 13.5714 47.2076 14.0714L47.279 14.1429L47.2076 14.2143C46.7075 14.7857 46.2789 15.1429 45.8503 15.1429C44.993 15.1429 44.993 13.9286 44.993 12.4286C44.9216 10.5714 44.9216 8.5 43.2785 8.5C41.3496 8.5 39.8494 11 38.9207 13.1429L38.5635 13.8571L38.7064 11.4286C38.8493 8.92857 38.9207 6.57143 38.9207 4.21429C38.9207 2.07143 38.8493 0.857143 38.7778 0.571429C38.7064 0.428571 38.2778 0.142857 37.9206 0.142857C37.7063 0.142857 36.9204 0.5 36.7776 0.642857C36.6347 0.928571 36.4918 3.85714 36.4918 6.64286C36.4918 13.2143 36.9204 16 36.9919 16.3571V16.4286C37.0633 16.5714 37.4205 16.6429 37.7063 16.6429C37.992 16.6429 38.4206 16.5714 38.4921 16.4286L38.5635 16.2857C39.3493 14.2143 40.8496 10.7143 42.1355 10.7143C42.8498 10.7143 42.8498 11.6429 42.9213 12.7143C42.9927 14.4286 43.0642 16.5714 45.4216 16.5714C46.2789 16.5714 47.1362 16.0714 47.922 15.1429L48.0649 15L48.2077 15.1429C49.065 16 50.2795 16.5714 51.5654 16.5714C54.0657 16.5714 56.066 14.7143 56.066 12.5C55.7803 10.3571 53.78 8.5 51.3511 8.5ZM51.3511 15.0714C50.208 15.0714 49.3508 13.9286 49.3508 12.5714C49.3508 11.2143 50.2795 10.0714 51.3511 10.0714C52.4941 10.0714 53.4228 11.2143 53.4228 12.5714C53.4228 13.9286 52.4941 15.0714 51.3511 15.0714ZM61.1382 8.5C60.2809 8.5 59.3522 8.78571 58.6378 9.28571L58.4235 9.42857L58.352 9.21429C58.2806 8.92857 58.2806 8.71429 58.2806 8.71429C58.2092 8.57143 57.7805 8.5 57.4948 8.5C57.2805 8.5 56.8518 8.57143 56.7804 8.71429C56.709 9 56.3518 12.2143 56.3518 18V18.0714C56.4232 18.1429 56.4232 18.2143 56.4232 18.5C56.4946 21.3571 56.709 24.1429 56.8518 24.5C56.9947 24.6429 57.7805 25 57.9949 25H58.0663C58.4949 25 58.8521 24.7143 58.8521 24.5714C58.8521 24.5 58.9236 24.2143 58.9236 22.3571V20.9286C58.9236 19.9286 58.8521 19.2857 58.8521 18.4286C58.7807 17.8571 58.7807 17.2143 58.7092 16.2143V16L58.9236 16.1429C59.6379 16.5 60.3523 16.7143 61.0667 16.7143C63.5671 16.7143 65.5674 14.8571 65.5674 12.6429C65.6388 10.3571 63.6385 8.5 61.1382 8.5ZM61.1382 15.0714C59.2808 15.0714 58.6378 13.7857 58.6378 12.5714C58.6378 11.0714 59.5665 10.0714 61.1382 10.0714C62.2812 10.0714 63.2099 11.2143 63.2099 12.5714C63.2099 13.9286 62.2812 15.0714 61.1382 15.0714ZM70.9967 8.5C70.1394 8.5 69.2107 8.78571 68.4963 9.28571L68.282 9.42857L68.2106 9.21429C68.1392 8.92857 68.1392 8.71429 68.1392 8.71429C68.0677 8.57143 67.6391 8.5 67.3533 8.5C67.139 8.5 66.7104 8.57143 66.6389 8.71429C66.5675 9 66.2103 12.2143 66.2103 18V18.0714C66.2817 18.1429 66.2817 18.2143 66.2817 18.5C66.3532 21.3571 66.5675 24.1429 66.7104 24.5C66.8533 24.6429 67.6391 25 67.8534 25H67.9248C68.3535 25 68.7107 24.7143 68.7107 24.5714C68.7107 24.5 68.7821 24.2143 68.7821 22.3571V20.9286C68.7821 19.9286 68.7107 19.2857 68.7107 18.4286C68.6392 17.8571 68.6392 17.2143 68.5678 16.2857V16.0714L68.7821 16.2143C69.4965 16.5714 70.2109 16.7857 70.9253 16.7857C73.4256 16.7857 75.4259 14.9286 75.4259 12.7143C75.4973 10.3571 73.4971 8.5 70.9967 8.5ZM70.9967 15.0714C69.1393 15.0714 68.4963 13.7857 68.4963 12.5714C68.4963 11.0714 69.425 10.0714 70.9967 10.0714C72.1397 10.0714 73.0684 11.2143 73.0684 12.5714C73.0684 13.9286 72.1397 15.0714 70.9967 15.0714ZM94.0714 11.5714C94.0714 11.5714 94 11.6429 94 11.7143C93.357 13 91.9997 15.1429 90.9995 15.1429C90.7138 15.1429 90.5709 14.9286 90.5709 14.6429C90.5709 14.2857 90.8567 13.5714 91.2139 12.7857C91.4996 12 91.9282 11.1429 91.9282 10.6429C91.9282 9.78571 91.3567 9.35714 90.3566 9.35714C90.2851 9.35714 88.142 9.35714 87.499 8.92857L87.4276 8.85714V8.78572C87.4276 8.28572 87.2847 7 86.2131 7C85.6416 7 85.2844 7.85714 85.2844 8.28572C85.2844 9.42857 85.8559 9.92857 86.1417 10.0714C86.2131 10.1429 86.2131 10.1429 86.2131 10.1429L86.2846 10.2143L86.2131 10.2857C85.9274 11.3571 85.2844 12.2857 84.9987 12.8571C83.9985 14.2857 82.7841 14.9286 81.141 14.9286C79.9265 14.9286 78.9978 14.2857 78.7121 13.2143L78.6406 12.9286L78.855 13C79.4979 13.2143 80.0694 13.2857 80.6409 13.2857C82.2126 13.2857 83.8557 12.5 83.8557 10.7857C83.8557 9.35714 82.4983 8.28572 80.6409 8.28572C78.212 8.28572 76.2117 10.1429 76.2117 12.3571C76.2117 14 77.4976 16.4286 81.0696 16.4286C83.9271 16.4286 85.3559 13.8571 85.7845 13.0714L85.8559 13C86.356 12.1429 86.7847 11.0714 86.9275 10.6429L86.999 10.5L87.1418 10.5714C87.3562 10.6429 88.3563 10.8571 88.9993 10.8571C89.285 10.8571 89.4993 11 89.4993 11.2857C89.4993 11.3571 89.4279 11.4286 89.4279 11.5L89.3564 11.5714L89.2136 11.7857C88.8564 12.5714 88.3563 13.7143 88.3563 14.5C88.3563 15.5 88.9993 16.5 90.428 16.5C92.4283 16.5 93.6428 14 94.0714 13.2143L94.1428 13.1429C94.2143 12.9286 94.2857 12.6429 94.2857 12.2857C94.2143 12 94.1428 11.5714 94.0714 11.5714ZM78.6406 12.2857C78.7835 11.0714 79.7122 10.0714 80.6409 10.0714C81.4982 10.0714 82.0697 10.5 82.0697 11.2857C82.0697 12.2143 80.7838 12.5714 79.7122 12.5714C79.2836 12.5714 78.9264 12.5 78.7121 12.4286L78.5692 12.3571L78.6406 12.2857Z" fill="#FA6866"/>
</svg>
