<svg width="15" height="11" viewBox="0 0 15 11" fill="none" xmlns="http://www.w3.org/2000/svg">
<path fill-rule="evenodd" clip-rule="evenodd" d="M14.1823 1.64587C14.3038 2.11462 14.3906 2.82642 14.4427 3.78128L14.4687 5.08336L14.4427 6.38544C14.3906 7.35766 14.3038 8.07815 14.1823 8.5469C14.0955 8.84203 13.9392 9.10245 13.7135 9.32814C13.4878 9.55384 13.2187 9.71009 12.9062 9.79689C12.4548 9.91842 11.3958 10.0052 9.72915 10.0573L7.35936 10.0834L4.98957 10.0573C3.32291 10.0052 2.26388 9.91842 1.8125 9.79689C1.5 9.71009 1.2309 9.55384 1.00521 9.32814C0.779513 9.10245 0.623263 8.84203 0.536458 8.5469C0.41493 8.07815 0.328125 7.35766 0.276042 6.38544L0.25 5.08336C0.25 4.70142 0.25868 4.26739 0.276042 3.78128C0.328125 2.82642 0.41493 2.11462 0.536458 1.64587C0.623263 1.33337 0.779513 1.06427 1.00521 0.838581C1.2309 0.612887 1.5 0.456637 1.8125 0.369832C2.26388 0.248304 3.32291 0.161499 4.98957 0.109416L7.35936 0.083374L9.72915 0.109416C11.3958 0.161499 12.4548 0.248304 12.9062 0.369832C13.2187 0.456637 13.4878 0.612887 13.7135 0.838581C13.9392 1.06427 14.0955 1.33337 14.1823 1.64587ZM5.90112 7.21875L9.62507 5.08334L5.90112 2.97397V7.21875Z" fill="#505050"/>
</svg>
