<svg width="32" height="32" viewBox="0 0 32 32" fill="none" xmlns="http://www.w3.org/2000/svg">
<path fill-rule="evenodd" clip-rule="evenodd" d="M16 31C24.2843 31 31 24.2843 31 16C31 7.71573 24.2843 1 16 1C7.71573 1 1 7.71573 1 16C1 24.2843 7.71573 31 16 31Z" stroke="#878787" stroke-width="0.885078"/>
<path fill-rule="evenodd" clip-rule="evenodd" d="M22.8488 12.5625C22.9703 13.0312 23.0571 13.743 23.1092 14.6979L23.1352 16L23.1092 17.3021C23.0571 18.2743 22.9703 18.9948 22.8488 19.4635C22.762 19.7587 22.6057 20.0191 22.38 20.2448C22.1543 20.4705 21.8852 20.6267 21.5727 20.7135C21.1213 20.835 20.0623 20.9219 18.3956 20.9739L16.0259 21L13.6561 20.9739C11.9894 20.9219 10.9304 20.835 10.479 20.7135C10.1665 20.6267 9.8974 20.4705 9.67171 20.2448C9.44602 20.0191 9.28977 19.7587 9.20296 19.4635C9.08143 18.9948 8.99463 18.2743 8.94255 17.3021L8.9165 16C8.9165 15.618 8.92518 15.184 8.94255 14.6979C8.99463 13.743 9.08143 13.0312 9.20296 12.5625C9.28977 12.25 9.44602 11.9809 9.67171 11.7552C9.8974 11.5295 10.1665 11.3733 10.479 11.2865C10.9304 11.1649 11.9894 11.0781 13.6561 11.026L16.0259 11L18.3956 11.026C20.0623 11.0781 21.1213 11.1649 21.5727 11.2865C21.8852 11.3733 22.1543 11.5295 22.38 11.7552C22.6057 11.9809 22.762 12.25 22.8488 12.5625ZM14.5674 18.1354L18.2913 16L14.5674 13.8906V18.1354Z" fill="#505050"/>
</svg>
